<?xml version="1.0" encoding="UTF-8" ?>
<!DOCTYPE svg PUBLIC "-//W3C//DTD SVG 1.1//EN" "http://www.w3.org/Graphics/SVG/1.1/DTD/svg11.dtd">
<svg width="128pt" height="128pt" viewBox="0 0 128 128" version="1.1" xmlns="http://www.w3.org/2000/svg">
<g id="#000000ff">
<path fill="#000000" opacity="1.00" d=" M 60.82 0.00 L 66.77 0.00 C 79.74 0.71 92.60 5.13 102.84 13.18 C 104.36 14.05 103.91 15.90 104.12 17.35 C 100.82 18.78 98.28 15.87 95.70 14.28 C 81.67 5.12 63.55 2.61 47.51 7.39 C 35.30 10.92 24.37 18.56 16.78 28.74 C 7.73 40.72 3.56 56.25 5.43 71.15 C 7.03 85.34 14.18 98.66 24.79 108.16 C 27.13 98.02 33.26 88.74 42.05 83.07 C 53.73 75.25 69.60 74.38 82.08 80.83 C 92.82 86.15 100.55 96.57 103.24 108.18 C 120.43 93.07 127.44 67.67 120.15 45.94 C 118.88 40.96 115.82 36.73 114.16 31.94 C 114.36 31.35 114.78 30.18 114.98 29.60 C 116.38 29.82 118.24 29.49 118.86 31.13 C 124.53 40.27 127.43 50.96 128.00 61.65 L 128.00 66.92 C 127.23 80.80 122.08 94.46 113.04 105.06 C 101.79 118.67 84.73 127.09 67.12 128.00 L 61.10 128.00 C 44.86 127.20 29.02 120.05 17.81 108.24 C 7.09 97.33 0.87 82.37 0.00 67.15 L 0.00 61.01 C 0.78 45.49 7.25 30.29 18.24 19.25 C 29.33 7.72 44.88 0.86 60.82 0.00 M 46.96 85.89 C 37.38 91.07 30.79 101.00 29.26 111.74 C 40.14 119.55 53.64 123.67 67.04 122.89 C 78.41 122.42 89.43 118.32 98.71 111.82 C 97.41 102.53 92.38 93.79 84.75 88.27 C 74.02 80.24 58.62 79.31 46.96 85.89 Z" />
<path fill="#000000" opacity="1.00" d=" M 107.89 20.89 C 110.96 19.45 113.73 22.36 111.85 25.31 C 108.88 26.28 106.57 23.77 107.89 20.89 Z" />
<path fill="#000000" opacity="1.00" d=" M 57.41 27.49 C 68.07 23.97 80.60 29.90 84.73 40.30 C 88.40 48.70 86.15 59.18 79.40 65.36 C 72.96 71.58 62.68 73.27 54.60 69.42 C 46.16 65.65 40.65 56.28 41.60 47.06 C 42.24 38.11 48.83 30.04 57.41 27.49 M 59.19 32.17 C 50.85 34.39 45.10 43.41 46.75 51.91 C 48.09 61.19 57.81 68.10 67.02 66.22 C 76.57 64.80 83.50 54.46 81.04 45.08 C 79.11 35.60 68.44 29.25 59.19 32.17 Z" />
</g>
<g id="#ecf2f3ff">
<path fill="#ecf2f3" opacity="1.00" d=" M 47.51 7.39 C 63.55 2.61 81.67 5.12 95.70 14.28 C 98.28 15.87 100.82 18.78 104.12 17.35 C 105.36 18.54 106.62 19.72 107.89 20.89 C 106.57 23.77 108.88 26.28 111.85 25.31 C 112.89 26.74 113.93 28.17 114.98 29.60 C 114.78 30.18 114.36 31.35 114.16 31.94 C 115.82 36.73 118.88 40.96 120.15 45.94 C 127.44 67.67 120.43 93.07 103.24 108.18 C 100.55 96.57 92.82 86.15 82.08 80.83 C 69.60 74.38 53.73 75.25 42.05 83.07 C 33.26 88.74 27.13 98.02 24.79 108.16 C 14.18 98.66 7.03 85.34 5.43 71.15 C 3.56 56.25 7.73 40.72 16.78 28.74 C 24.37 18.56 35.30 10.92 47.51 7.39 M 57.41 27.49 C 48.83 30.04 42.24 38.11 41.60 47.06 C 40.65 56.28 46.16 65.65 54.60 69.42 C 62.68 73.27 72.96 71.58 79.40 65.36 C 86.15 59.18 88.40 48.70 84.73 40.30 C 80.60 29.90 68.07 23.97 57.41 27.49 Z" />
</g>
<g id="#cecdf3ff">
<path fill="#cecdf3" opacity="1.00" d=" M 59.19 32.17 C 68.44 29.25 79.11 35.60 81.04 45.08 C 83.50 54.46 76.57 64.80 67.02 66.22 C 57.81 68.10 48.09 61.19 46.75 51.91 C 45.10 43.41 50.85 34.39 59.19 32.17 Z" />
<path fill="#cecdf3" opacity="1.00" d=" M 46.96 85.89 C 58.62 79.31 74.02 80.24 84.75 88.27 C 92.38 93.79 97.41 102.53 98.71 111.82 C 89.43 118.32 78.41 122.42 67.04 122.89 C 53.64 123.67 40.14 119.55 29.26 111.74 C 30.79 101.00 37.38 91.07 46.96 85.89 Z" />
</g>
</svg>
