<?xml version="1.0" encoding="UTF-8" ?>
<!DOCTYPE svg PUBLIC "-//W3C//DTD SVG 1.1//EN" "http://www.w3.org/Graphics/SVG/1.1/DTD/svg11.dtd">
<svg width="96pt" height="96pt" viewBox="0 0 96 96" version="1.1" xmlns="http://www.w3.org/2000/svg">
<g id="#000000ff">
<path fill="#000000" opacity="1.00" d=" M 43.40 4.60 C 53.87 1.44 65.69 9.98 65.90 20.91 C 66.15 30.94 65.93 40.98 66.01 51.02 C 66.20 56.54 63.93 62.12 59.66 65.67 C 54.36 70.32 46.25 71.33 39.98 68.09 C 34.00 65.16 29.94 58.71 30.03 52.02 C 29.97 42.02 29.97 32.01 30.03 22.00 C 29.87 14.03 35.71 6.55 43.40 4.60 M 44.38 10.58 C 39.53 12.02 35.98 16.83 36.06 21.90 C 35.95 31.95 35.96 42.01 36.05 52.07 C 35.88 58.46 41.63 64.18 48.02 63.95 C 53.97 64.11 59.56 59.10 59.86 53.12 C 60.24 44.43 59.85 35.71 60.03 27.01 C 59.97 23.23 60.37 19.10 58.23 15.77 C 55.53 11.12 49.47 8.89 44.38 10.58 Z" />
<path fill="#000000" opacity="1.00" d=" M 18.23 44.01 C 18.83 41.36 23.12 41.35 23.77 43.97 C 24.29 47.67 23.75 51.42 24.24 55.12 C 25.16 63.23 30.67 70.58 38.12 73.84 C 45.40 77.20 54.36 76.52 61.06 72.12 C 67.17 68.19 71.36 61.34 71.86 54.06 C 72.18 50.71 71.75 47.33 72.20 43.98 C 72.89 41.34 77.11 41.33 77.79 43.98 C 78.80 53.18 77.61 63.22 71.51 70.57 C 66.56 76.97 58.94 80.88 50.99 81.95 C 50.99 85.30 51.21 88.67 50.80 92.01 C 50.09 94.66 45.90 94.66 45.20 92.01 C 44.78 88.67 45.02 85.30 45.01 81.95 C 35.60 80.78 26.77 75.31 22.06 67.01 C 17.90 60.15 17.46 51.79 18.23 44.01 Z" />
</g>
</svg>
